<svg id="fav-star" xmlns="http://www.w3.org/2000/svg" viewBox="0 0 131.4507 125.8146"><defs><style>.cls-1,.cls-2{fill:#ffdb2a;}.cls-1{stroke:#fff;stroke-miterlimit:10;}</style></defs><path class="cls-1" d="M98.6273,46.8635l15.2678,30.9359a3.2768,3.2768,0,0,0,2.4673,1.7926l34.14,4.9608a3.277,3.277,0,0,1,1.8161,5.59l-24.7037,24.08a3.2769,3.2769,0,0,0-.9425,2.9006l5.8318,34.0018a3.277,3.277,0,0,1-4.7548,3.4545L97.2136,138.526a3.2769,3.2769,0,0,0-3.05,0L63.6282,154.58a3.2769,3.2769,0,0,1-4.7547-3.4545l5.8317-34.0018a3.2768,3.2768,0,0,0-.9424-2.9006L39.059,90.1424a3.277,3.277,0,0,1,1.8162-5.59l34.14-4.9608a3.2768,3.2768,0,0,0,2.4674-1.7926L92.75,46.8635A3.277,3.277,0,0,1,98.6273,46.8635Z" transform="translate(-28.4981 -44.5368)"/><path class="cls-2" d="M127.5193,69.4241a35.5187,35.5187,0,0,1,4.2514-3.8665c1.1023-.866,2.964-2.1816,4.3709-3.2061a40.7626,40.7626,0,0,0,8.937-8.2429,2.5159,2.5159,0,0,0-.8969-3.4205,2.561,2.561,0,0,0-3.4205.8969c.1932-.2565-.2776.3474-.2668.3343q-.2112.2565-.43.5063-.4365.4993-.9.9742c-.6482.666-1.3311,1.2973-2.0359,1.9028-1.4235,1.2232-2.56,2.0454-4.1646,3.206a57.8057,57.8057,0,0,0-8.98,7.38,2.5528,2.5528,0,0,0,0,3.5355,2.5267,2.5267,0,0,0,3.5356,0Z" transform="translate(-28.4981 -44.5368)"/><path class="cls-2" d="M138.7785,122.0867a63.0933,63.0933,0,0,0,17.43,11.6011,2.5788,2.5788,0,0,0,3.4205-.8969,2.5191,2.5191,0,0,0-.8969-3.4205,58.9277,58.9277,0,0,1-16.4177-10.8192,2.5,2.5,0,1,0-3.5355,3.5355Z" transform="translate(-28.4981 -44.5368)"/><path class="cls-2" d="M93.01,148.2978q-.641,9.5009-2.2015,18.9a2.5748,2.5748,0,0,0,1.7461,3.0753,2.52,2.52,0,0,0,3.0753-1.7461q1.6812-10.05,2.38-20.2294a2.5,2.5,0,0,0-5,0Z" transform="translate(-28.4981 -44.5368)"/><path class="cls-2" d="M55.8441,116.5162l-25.5959,7.7244c-3.0725.9272-1.7632,5.7546,1.3292,4.8214l25.5959-7.7244c3.0725-.9272,1.7632-5.7546-1.3292-4.8214Z" transform="translate(-28.4981 -44.5368)"/><path class="cls-2" d="M70.952,69.5064a49.9655,49.9655,0,0,1-5.9386-6.169,32.9,32.9,0,0,0-6.57-6.07,2.5185,2.5185,0,0,0-3.42.8968,2.5577,2.5577,0,0,0,.8969,3.4205c.29.191.576.3877.8557.5939q.1141.0837.2268.17-.3476-.27-.1342-.1007c.12.1012.2446.1973.3651.2981.5307.444,1.04.913,1.5333,1.3983.9941.9782,1.9211,2.0218,2.8364,3.0733a48.5563,48.5563,0,0,0,5.8131,6.025,2.5607,2.5607,0,0,0,3.5355,0,2.528,2.528,0,0,0,0-3.5355Z" transform="translate(-28.4981 -44.5368)"/></svg>