<svg id="planer" xmlns="http://www.w3.org/2000/svg" viewBox="0 0 119.8208 81.2552"><defs><style>.cls-1{fill:#e8e8e8;}.cls-2{fill:#e83f40;}.cls-3{fill:#3a3a3a;}.cls-4{fill:#cdcccc;}.cls-5,.cls-6{fill:#ffd114;}.cls-6{stroke:#fff;stroke-miterlimit:10;stroke-width:0.25px;}</style></defs><g id="calender"><rect class="cls-1" x="27.4407" y="55.6603" width="78.2798" height="56.981" rx="12" transform="translate(-37.4484 -33.6923) rotate(-10.5886)"/><path class="cls-2" d="M28.1247,69.977c.1365-1.77,1.7423-3.2108,3.1028-4.1635a34.2968,34.2968,0,0,1,6.3665-3.433,69.4471,69.4471,0,0,1,14.1-3.9255c10.5817-1.993,21.3067-3.4,31.9825-4.7827,1.5358-.1989,3.0927-.4874,4.6407-.5542a5.4551,5.4551,0,0,1,3.3179,1.0427,17.6363,17.6363,0,0,1,5.3809,5.2932c.9184,1.3965,3.5186,1.8468,4.3173,0,1.4214-3.2867-.9494-5.8348-3.386-7.8117-2.2809-1.8507-5.1465-3.7882-8.2179-3.6056a26.51,26.51,0,0,0-4.359.8607q-2.3159.537-4.6468,1.0063c-2.965.601-5.9431,1.1354-8.9246,1.6474C60.0916,53.562,48.2186,55.2278,36.99,59.265A46.8272,46.8272,0,0,0,28.209,63.13c-2.6245,1.62-6.4272,4.8042-4.4874,8.2294a2.5308,2.5308,0,0,0,2.8233,1.1489q14.87-4.9557,30.1166-8.6545,7.4994-1.8139,15.07-3.3133c4.77-.9444,9.7118-2.1952,14.5951-2.2592a13.5015,13.5015,0,0,1,6.846,1.666c2.6132,1.3913,5.2773,1.8107,7.7282-.1169A2.4885,2.4885,0,0,0,101.292,56.8a3.4668,3.4668,0,0,0-2.1315-1.54,2.5674,2.5674,0,0,0-3.0753,1.7461,2.5225,2.5225,0,0,0,1.7461,3.0753l-.1187-.0672-.8968-.8968.1588.2065.3909-3.03c.3648-.2869.016.0017-.2642-.09a7.3585,7.3585,0,0,1-1.2268-.48,25.482,25.482,0,0,0-3.2087-1.5133,18.3727,18.3727,0,0,0-6.7731-.9215c-4.872.151-9.7751,1.31-14.5437,2.242Q56.44,58.4449,41.8053,62.5767q-8.3538,2.36-16.59,5.11l2.8233,1.1489c1.2907,2.279-.1746.9049.1883.7465.1275-.0557.4031-.4566.5287-.5848a9.336,9.336,0,0,1,.9871-.8893A17.5769,17.5769,0,0,1,32.846,66.311a61.88,61.88,0,0,1,6.5346-2.5983A119.7958,119.7958,0,0,1,53.9363,59.802c9.915-2.0789,19.9822-3.3354,29.8913-5.4453q2.1027-.4477,4.1929-.9507a5.0882,5.0882,0,0,1,3.3108-.1152,13.4118,13.4118,0,0,1,3.0809,1.887A17.4,17.4,0,0,1,96.001,56.605a7.6359,7.6359,0,0,1,.59.6185c.4826.61.0332.6139.4255-.2931h4.3173c-2.8681-4.3612-7.8672-9.2566-13.5026-8.776-6.2668.5345-12.54,1.6187-18.763,2.521-5.8812.8527-11.7718,1.703-17.62,2.759A74.347,74.347,0,0,0,35.47,57.8937c-5.2847,2.246-11.849,5.6488-12.3455,12.0833a2.5214,2.5214,0,0,0,2.5,2.5,2.5494,2.5494,0,0,0,2.5-2.5Z" transform="translate(-23.1189 -47.3598)"/><path class="cls-3" d="M47.18,63.2544l-.1245-.0429,1.1032.6429a1.5651,1.5651,0,0,1,.46,1.14l-.0315-.34-.063-.68-.1366-1.4733c-.085-.9176-.1757-1.8348-.2535-2.7529a16.2372,16.2372,0,0,1-.0649-2.4553c.0116-.172-.05-.6967-.0049-.104a2.0213,2.0213,0,0,1,.1134-.5627c.0462-.1856.1092-.3643.1638-.5471q.1488-.3913-.0313.0689.0843-.1737.1821-.34l-4.3174-2.5236c-2.2181,4.3975-.4214,9.1808.7642,13.6042l1.7461-3.0753-.2907.0514A2.5116,2.5116,0,0,0,44.648,66.94a2.5688,2.5688,0,0,0,3.0753,1.7461l.2907-.0514A2.5277,2.5277,0,0,0,49.76,65.56c-.5116-1.9087-1.0993-3.8151-1.4885-5.7535-.0442-.22-.0822-.4409-.121-.6621-.1041-.5939.0062.3259-.0259-.225a13.3738,13.3738,0,0,1-.0375-1.4465,5.2807,5.2807,0,0,1,.0511-.6094c-.1069.6377.03-.0477.05-.1356.0454-.1972.0995-.3926.1627-.5848q.0628-.1923.1382-.38-.1806.43.0027.0455a2.5,2.5,0,0,0-4.3174-2.5236c-1.2071,2.1514-1.2157,4.5628-.9974,6.95q.1659,1.8135.3362,3.6267A12.0746,12.0746,0,0,0,43.76,65.95a3.0763,3.0763,0,0,0,2.09,2.1261A2.5167,2.5167,0,0,0,48.9257,66.33,2.5608,2.5608,0,0,0,47.18,63.2544Z" transform="translate(-23.1189 -47.3598)"/><path class="cls-3" d="M75.6793,58.7346l-.4754-2.3608c-.0789-.3919-.1591-.7835-.2366-1.1757-.0381-.1924-.0726-.3851-.1089-.5778-.12-.6347.0168.5333-.0142-.1109a3.091,3.091,0,0,1,.012-1.1566l-.0385.2853q.0307-.1892.07-.3767c.04-.1883.0863-.3751.1374-.5606a21.1383,21.1383,0,0,1,.7789-2.19l-4.8214-1.3292a18.98,18.98,0,0,0,.2193,11.6711,2.5006,2.5006,0,0,0,4.8214-1.3292,16.7107,16.7107,0,0,1-.67-2.4931,2.2275,2.2275,0,0,1-.0916-.5461q.0686.54.0162.1156-.0215-.1834-.0386-.3672-.056-.5976-.0685-1.1979t.0177-1.2q.0186-.3688.0541-.7365c.0152-.1581.0359-.7384-.0023-.0686a11.1974,11.1974,0,0,1,.5641-2.5192,2.5245,2.5245,0,0,0-1.7461-3.0753,2.5739,2.5739,0,0,0-3.0753,1.7461,11.8911,11.8911,0,0,0-1.1389,5.3278,49.978,49.978,0,0,0,1.0137,5.5544A2.5157,2.5157,0,0,0,73.9332,61.81a2.5622,2.5622,0,0,0,1.7461-3.0753Z" transform="translate(-23.1189 -47.3598)"/><path class="cls-4" d="M38.72,82.6657q.0589-.0261.1182-.0514l-.5972.252a8.7268,8.7268,0,0,1,2.1685-.5986l-.6646.0893a8.889,8.889,0,0,1,1.2211-.079L39.1979,78.01l-.0457.0361.5059-.391a5.1213,5.1213,0,0,1-1.1015.6465l.5972-.252a5.2181,5.2181,0,0,1-1.2876.3535l.6646-.0893a5.2124,5.2124,0,0,1-.8131.0411l.6646,4.9107,1.421-.4713a2.6447,2.6447,0,0,0,1.4941-1.1489,1.8606,1.8606,0,0,0,.2967-.93,1.8938,1.8938,0,0,0-.0447-.9969,2.5011,2.5011,0,0,0-3.0753-1.7461l-1.421.4713a2.5968,2.5968,0,0,0-1.4941,1.1489l-.252.5972a1.8938,1.8938,0,0,0-.0447.9969,1.2452,1.2452,0,0,0,.1707.6309,1.8733,1.8733,0,0,0,.5169.8045,2.6577,2.6577,0,0,0,1.7678.7323,8.5339,8.5339,0,0,0,1.5353-.1385,5.1907,5.1907,0,0,0,.8763-.2109A8.9,8.9,0,0,0,41.5,82.4176a8.6842,8.6842,0,0,0,1.2335-.8718l.3909-.506.252-.5972.0893-.6646a1.883,1.883,0,0,0-.2153-.9632,2.4738,2.4738,0,0,0-.77-1,1.2486,1.2486,0,0,0-.5516-.3215,1.8828,1.8828,0,0,0-.9632-.2153,11.9054,11.9054,0,0,0-2.4573.2669,11.64,11.64,0,0,0-2.3123.8035,2.4082,2.4082,0,0,0-1.1936,2.4909,1.8606,1.8606,0,0,0,.2967.93,2.5235,2.5235,0,0,0,1.4941,1.1489l.6646.0893a2.4877,2.4877,0,0,0,1.2618-.3413Z" transform="translate(-23.1189 -47.3598)"/><path class="cls-4" d="M50.1436,79.53l.0182.0161L49.43,77.7779l.0015.0169.3413-1.2618-.0115.016.8969-.8968-.0207.0133.5972-.252-.026.009.6646-.0893-.0275.003.6646.0893-.0252-.0049.5972.2521-.0191-.0144,1.1489,1.4941-.0092-.0255.0893.6646.005-.0442-.3413,1.2618.0212-.0378-.3909.506.0335-.0318-.506.3909a.3641.3641,0,0,1,.0883-.0466l-.5972.2521A10.6894,10.6894,0,0,1,54.49,79.646l-.6646.0893a13.7517,13.7517,0,0,1,1.729-.1167l-.6646-4.9107a17.9648,17.9648,0,0,1-2.745.5974l.6646-.0893q-.25.0332-.5011.06l2.1587,3.7618a.5153.5153,0,0,1,.0517-.09l-.3909.5059a.8091.8091,0,0,1,.1074-.1131l-.5059.3909a.83.83,0,0,1,.1342-.08l-.5972.252a.7841.7841,0,0,1,.1506-.04l-.6646.0893.0521-.0034a2.6527,2.6527,0,0,0,1.7678-.7322,2.5,2.5,0,0,0,0-3.5356,2.4826,2.4826,0,0,0-1.7678-.7322,3.21,3.21,0,0,0-1.5565.4344,3.031,3.031,0,0,0-1.0983,1.1312,2.5,2.5,0,0,0,2.1587,3.7618,21.4635,21.4635,0,0,0,3.9107-.7469A2.57,2.57,0,0,0,57.7127,78.38l.252-.5972a1.8928,1.8928,0,0,0,.0446-.9969,1.2451,1.2451,0,0,0-.1706-.6309,1.8742,1.8742,0,0,0-.5169-.8045,2.5893,2.5893,0,0,0-1.7678-.7323,16.4381,16.4381,0,0,0-3.6722.4415,4.234,4.234,0,0,0-1.2269.4227,2.8519,2.8519,0,0,0-1.0167,1.0027,2.6381,2.6381,0,0,0-.2478,1.9961,2.5893,2.5893,0,0,0,3.77,1.5013,2.6767,2.6767,0,0,0,1.181-1.5235,2.5143,2.5143,0,0,0-.6626-2.4655,2.6419,2.6419,0,0,0-1.7678-.7322,2.5438,2.5438,0,0,0-1.7677.7322,2.5,2.5,0,0,0,0,3.5356Z" transform="translate(-23.1189 -47.3598)"/><path class="cls-4" d="M65.871,77.0818l.017.01-1.1489-1.4941.0042.013V74.281l-.006.0147.6429-1.1032-.0136.0142.506-.3909-.0186.0117.5972-.252-.0209.0073.6646-.0893-.02.0009,1.2618.3413-.0176-.0076.8969.8969-.012-.018.3413,1.2618-.0045-.0352-.0893.6646.0091-.0334-.252.5972.02-.031-.3909.5059a.2961.2961,0,0,1,.0591-.0532l-.506.391a9.5732,9.5732,0,0,1,1.3979-.7008l-.5972.252c.2345-.0983.4715-.19.7116-.2743a4.1167,4.1167,0,0,1,.7217-.2169l-.6646.0893a.3287.3287,0,0,1,.1038.0045l-.6646-.0893.0494.0165-.5972-.252a.25.25,0,0,1,.0577.0364l-.506-.391.0218.0217-.3909-.5059a.1808.1808,0,0,1,.03.0494l-.252-.5972a.2059.2059,0,0,1,.014.0562l-.0893-.6646a.2682.2682,0,0,1-.0008.0614l.0893-.6646a.5846.5846,0,0,1-.0255.0981l.252-.5972a.8593.8593,0,0,1-.0952.1663l.3909-.5059a1.073,1.073,0,0,1-.1714.1734l.506-.391a3.7585,3.7585,0,0,1-.7507.3744l.5972-.2521a5.5517,5.5517,0,0,1-1.0992.36l.6646-.0893a.3546.3546,0,0,1-.0976.0019l.6646.0893-.0459-.0111.5972.2521-.0422-.0219.5059.3909-.0212-.02.3909.506-.0157-.0244.252.5972a.1538.1538,0,0,1-.0149-.0567l.0893.6646.0006-.0291-.0893.6646.006-.0275-.252.5972.0113-.0243-.3909.506.0165-.0195-.506.3909.0217-.013-.5972.252.0268-.005a2.7973,2.7973,0,0,0,1.4941-1.1489,1.8617,1.8617,0,0,0,.2966-.93,1.8938,1.8938,0,0,0-.0446-.9969,2.529,2.529,0,0,0-1.1489-1.4941l-.5972-.252a2.5712,2.5712,0,0,0-2.4973.68,2.7421,2.7421,0,0,0-.66,1.155,1.8956,1.8956,0,0,0-.0453,1.026,3.6,3.6,0,0,0,.0545.3752,2.06,2.06,0,0,0,.2728.6354,2.795,2.795,0,0,0,.9182.9165,2.9288,2.9288,0,0,0,2.21.2623c.171-.041.34-.0958.5066-.1522a12.6531,12.6531,0,0,0,1.4978-.6231,3.8785,3.8785,0,0,0,.851-.5812,1.2113,1.2113,0,0,0,.1194-.1105c.0878-.0971.1737-.2205.2474-.3159a3.0593,3.0593,0,0,0,.25-.3355c.0155-.0273.0276-.0554.0407-.0838a4.6462,4.6462,0,0,0,.2636-.63,3.0582,3.0582,0,0,0,.1048-.7757,2.7358,2.7358,0,0,0-1.3051-2.3011,2.0049,2.0049,0,0,0-.3563-.1623,1.6065,1.6065,0,0,0-.68-.1872,3.4175,3.4175,0,0,0-.4361-.0492l-.3323.0446q-.193.0233-.3852.0527a4.9466,4.9466,0,0,0-.5352.163,16.1246,16.1246,0,0,0-2.4616,1.0593,3.778,3.778,0,0,0-.9164.63,2.716,2.716,0,0,0-.4281.55,1.9651,1.9651,0,0,0-.3157.9784,1.9076,1.9076,0,0,0,.0492,1.0321,2.6234,2.6234,0,0,0,.6549,1.1212,5.6034,5.6034,0,0,0,.5236.3985,2.6153,2.6153,0,0,0,1.2823.34,2.5011,2.5011,0,0,0,1.8072-.7513,5.805,5.805,0,0,0,.4046-.52q.1314-.305.258-.6119l.0893-.6646a1.7507,1.7507,0,0,0-.2195-.9762,1.8742,1.8742,0,0,0-.5169-.8046,2.19,2.19,0,0,0-.523-.4,2.6126,2.6126,0,0,0-1.9264-.2521,2.7973,2.7973,0,0,0-1.4941,1.1489,2.5236,2.5236,0,0,0-.252,1.9264,2.5654,2.5654,0,0,0,1.1489,1.4941Z" transform="translate(-23.1189 -47.3598)"/><path class="cls-4" d="M82.2621,69.5727l-.0342-.0165.506.3909-.0205-.0227.6429,1.1031L83.3481,71l.0893.6646.0028-.0314-.0893.6646.0124-.0337-.252.5972.0207-.0346-.3909.506a.5671.5671,0,0,1,.0991-.0961l-.506.3909a.3808.3808,0,0,1,.0834-.0442l-.5972.252a7.2081,7.2081,0,0,1,.9827-.1635l-.6646.0893a17.6465,17.6465,0,0,1,2.9289-.1369l-.6646-4.9107q-1.5395.3243-3.0988.5379A2.7973,2.7973,0,0,0,79.81,70.4a2.5,2.5,0,0,0,.8969,3.4205l.5972.252a2.5171,2.5171,0,0,0,1.3292,0q1.5587-.2134,3.0988-.5379a2.7973,2.7973,0,0,0,1.4941-1.1489l.252-.5972a1.8938,1.8938,0,0,0,.0447-.9969,1.2436,1.2436,0,0,0-.1707-.6309,1.8736,1.8736,0,0,0-.5169-.8046,2.6773,2.6773,0,0,0-1.7678-.7322,17.4179,17.4179,0,0,0-2.8109.1217c-.4183.0526-.8372.1067-1.2536.1737a2.8694,2.8694,0,0,0-1.1515.3656,3.0068,3.0068,0,0,0-1.3157,1.6666,2.0609,2.0609,0,0,0-.0983.7128,4.1805,4.1805,0,0,0,.0975.6923,2.58,2.58,0,0,0,.6532,1.1146,3.1835,3.1835,0,0,0,.55.4187,1.8606,1.8606,0,0,0,.93.2967,1.8938,1.8938,0,0,0,.9969-.0446,2.55,2.55,0,0,0,1.4941-1.1489,2.5236,2.5236,0,0,0,.252-1.9264,2.4682,2.4682,0,0,0-1.1489-1.4941Z" transform="translate(-23.1189 -47.3598)"/><path class="cls-4" d="M37.5264,91.6865l.0143.0215-.252-1.9264-.004.02.6429-1.1031-.0175.0162.5059-.3909-.0261.0111.5972-.252-.03.0043h1.3292l-.0289-.0043.5972.2521-.023-.0145.8969.8969-.0123-.0263.3413,1.2618.0035-.05L41.72,91.6648l.0235-.0436-.3909.506L41.39,92.09l-.506.3909a2.1457,2.1457,0,0,1,.3747-.18l-.5972.252a9.1019,9.1019,0,0,1,2.2031-.6029l-.6646.0893a9.2,9.2,0,0,1,1.5231-.0773l-1.7678-4.2678c-.0446.0409-.09.079-.1373.1162l.5059-.3909a1.8617,1.8617,0,0,1-.3647.2049l.5972-.252a1.99,1.99,0,0,1-.405.1085l.6646-.0893a1.9315,1.9315,0,0,1-.4787.0006l.6646.0893a1.8134,1.8134,0,0,1-.403-.112l.5972.252-.0547-.0248a1.8606,1.8606,0,0,0-.9295-.2967,1.8938,1.8938,0,0,0-.9969.0447,2.5493,2.5493,0,0,0-1.4941,1.1489,2.5234,2.5234,0,0,0-.252,1.9263,2.4358,2.4358,0,0,0,1.1489,1.4941,4.2191,4.2191,0,0,0,3.92.0043,3.8972,3.8972,0,0,0,.9529-.6886l.3909-.5059.252-.5972.0893-.6646a1.8828,1.8828,0,0,0-.2153-.9632,2.4773,2.4773,0,0,0-.77-1,2.5243,2.5243,0,0,0-1.5148-.5367,12.4692,12.4692,0,0,0-2.2633.1774,8.9733,8.9733,0,0,0-1.5926.3881c-.4325.149-.8543.332-1.2724.5164a2.4134,2.4134,0,0,0-.7593.5294,2.6932,2.6932,0,0,0-.4334.5684,1.8609,1.8609,0,0,0-.2967.93,3.0542,3.0542,0,0,0-.0481.3819,2.6125,2.6125,0,0,0,1.2505,2.185,2.2474,2.2474,0,0,0,.6491.2707,1.8928,1.8928,0,0,0,.9969.0446q.1814-.0229.3623-.0489a2.7267,2.7267,0,0,0,1.5377-1.1763,2.5213,2.5213,0,0,0-.01-2.5648A2.65,2.65,0,0,0,40.35,88.014a2.555,2.555,0,0,0-1.9264.252,2.5,2.5,0,0,0-.8969,3.42Z" transform="translate(-23.1189 -47.3598)"/><path class="cls-4" d="M53.1037,85.1263l-.492.3127a2.58,2.58,0,0,0-1.1489,1.4941l-.0893.6646a1.8828,1.8828,0,0,0,.2153.9632,2.3872,2.3872,0,0,0,1.0229,1.1955l.5972.252a2.5171,2.5171,0,0,0,1.3292,0,10.9249,10.9249,0,0,1,2.7135-.8527l-.6646.0893a4.4807,4.4807,0,0,1,1.1272-.0035l-.6646-.0893a1.0321,1.0321,0,0,1,.1893.0519l-.5972-.252.0562.0309-.506-.3909a.3267.3267,0,0,1,.0859.0815l-.3909-.5059.0273.0457-.252-.5972a.3513.3513,0,0,1,.0313.1016l-.0893-.6646a.4315.4315,0,0,1,.0024.1089l.0893-.6646a.7183.7183,0,0,1-.045.1616l.252-.5972a.5078.5078,0,0,1-.0584.0963l.3909-.506a.5236.5236,0,0,1-.0811.0826l.506-.3909a1.01,1.01,0,0,1-.206.1206l.5972-.2521a2.2837,2.2837,0,0,1-.5024.1131l.6646-.0893a4.6386,4.6386,0,0,1-1.1214-.0042l.6646.0893a4.6334,4.6334,0,0,1-1.0137-.262,1.8948,1.8948,0,0,0-.9969-.0446,1.8606,1.8606,0,0,0-.9295.2967,2.5,2.5,0,0,0-.8969,3.42l.3909.506a2.4968,2.4968,0,0,0,1.1032.6429,6.8116,6.8116,0,0,0,3.4643.2662,3.2812,3.2812,0,0,0,1.8926-.9592,2.9285,2.9285,0,0,0,.2379-3.7966,2.34,2.34,0,0,0-.7873-.7254,3.1694,3.1694,0,0,0-.7776-.3229,5.1228,5.1228,0,0,0-1.1758-.1357,8.0823,8.0823,0,0,0-1.7587.1959,12.5307,12.5307,0,0,0-2.3.784l1.9264,4.5694.492-.3127A2.6268,2.6268,0,0,0,56.7762,87.95a2.555,2.555,0,0,0-.2521-1.9264,2.5,2.5,0,0,0-3.42-.8969Z" transform="translate(-23.1189 -47.3598)"/><path class="cls-4" d="M70.3341,86.736a5.9817,5.9817,0,0,1,.7345-.3756l-.5972.252a5.9407,5.9407,0,0,1,1.4674-.3974l-.6646.0893a5.8412,5.8412,0,0,1,1.4569-.0029l-.6646-.0893.0629.0086-1.494-3.6725a2.4484,2.4484,0,0,1-.23.3668l.3909-.506a2.5649,2.5649,0,0,1-.4418.4368l.506-.3909a2.83,2.83,0,0,1-.5835.3354l.5972-.252a2.9062,2.9062,0,0,1-.6981.188l.6646-.0893a2.7365,2.7365,0,0,1-.6713,0l.6646.0893a2.457,2.457,0,0,1-.5992-.1646l.5972.252c-.0591-.0262-.1168-.0542-.1739-.0844a2.6338,2.6338,0,0,0-1.9264-.252,2.55,2.55,0,0,0-1.4941,1.1489,2.5,2.5,0,0,0,.8969,3.4205,5.2031,5.2031,0,0,0,2.178.6053,2.7754,2.7754,0,0,0,.5282-.015,6.0634,6.0634,0,0,0,1.1358-.1941,5.5786,5.5786,0,0,0,1.9514-1.0911,2.6305,2.6305,0,0,0,.359-.3512,5.0837,5.0837,0,0,0,.6656-.9288A2.4883,2.4883,0,0,0,75.294,83.81a2.7815,2.7815,0,0,0-.7322-1.7678,2.4963,2.4963,0,0,0-1.1032-.6429,7.75,7.75,0,0,0-3.225.0567,7.7279,7.7279,0,0,0-2.4231.9627,2.6,2.6,0,0,0-1.1489,1.4941,1.8928,1.8928,0,0,0-.0446.9969,1.86,1.86,0,0,0,.2966.93,2.5238,2.5238,0,0,0,1.4941,1.1489,2.5848,2.5848,0,0,0,1.9264-.2521Z" transform="translate(-23.1189 -47.3598)"/><path class="cls-4" d="M84.4433,84.526a12.234,12.234,0,0,1,1.5583-.3182l-.6646.0893a12.0489,12.0489,0,0,1,2.42-.0724l-2.1587-3.7618a2.9041,2.9041,0,0,1-.2578.4132l.3909-.5059a3.0348,3.0348,0,0,1-.5342.533l.5059-.3909a3.2812,3.2812,0,0,1-.6547.3821l.5972-.252a3.27,3.27,0,0,1-.7819.22l.6646-.0893a3.0343,3.0343,0,0,1-.7546.0066l.6646.0893a2.9046,2.9046,0,0,1-.4753-.1062,2.5013,2.5013,0,0,0-3.0753,1.7461,2.53,2.53,0,0,0,.252,1.9264,2.6869,2.6869,0,0,0,1.4941,1.1489,6.08,6.08,0,0,0,1.14.1955,3.0089,3.0089,0,0,0,.5393.0157,5.2566,5.2566,0,0,0,1.6618-.3311,6.6356,6.6356,0,0,0,1.0295-.4793,7.185,7.185,0,0,0,.875-.6657,4.57,4.57,0,0,0,1.0363-1.3323,2.5646,2.5646,0,0,0,0-2.5236,2.4985,2.4985,0,0,0-2.1586-1.2382,14.0349,14.0349,0,0,0-4.6429.48A2.5861,2.5861,0,0,0,81.62,80.8535a2.5,2.5,0,0,0,.8969,3.4205,2.6073,2.6073,0,0,0,1.9264.252Z" transform="translate(-23.1189 -47.3598)"/><path class="cls-4" d="M41.8918,99.3569l-.05.0029.6646.0893-.0482-.0137.5972.252-.0429-.0272.5059.3909-.0349-.0375.3909.506-.024-.0448.252.5972-.01-.049.0893.6646.0064-.05-1.2382,2.1586a6.0168,6.0168,0,0,1,1.0028-.5462l-.5972.252a6.1155,6.1155,0,0,1,1.4891-.4065l-.6646.0893a5.9513,5.9513,0,0,1,1.5429-.0009l-2.4107-3.1646q-.021.0556-.0447.11l.252-.5972a2.922,2.922,0,0,1-.3309.562l.3909-.506a3.0266,3.0266,0,0,1-.501.5057l.5059-.3909a2.9542,2.9542,0,0,1-.6126.3615l.5972-.2521a2.3411,2.3411,0,0,1-.52.1531l.6646-.0893a1.2631,1.2631,0,0,1-.3029.0008l.6646.0893a.9814.9814,0,0,1-.17-.0494l.5972.252a.5866.5866,0,0,1-.1033-.059l.506.3909a.5762.5762,0,0,1-.0938-.0948l.3909.506a.4865.4865,0,0,1-.045-.0779l.252.5972a.747.747,0,0,1-.04-.1291l.0893.6646a.6934.6934,0,0,1-.0045-.132l-.0893.6646a.5455.5455,0,0,1,.0331-.1217l-.252.5972a.3074.3074,0,0,1,.044-.069l-.3909.506.0289-.0294-.506.391a.2843.2843,0,0,1,.0718-.046,2.5,2.5,0,0,0,.8969-3.42,2.5232,2.5232,0,0,0-1.4941-1.1489,2.6805,2.6805,0,0,0-1.9263.252,2.8843,2.8843,0,0,0-1.0219,1.0051,2.2865,2.2865,0,0,0-.3495,1.0873,2.5877,2.5877,0,0,0-.0457.42,3.4435,3.4435,0,0,0,.1043.7529,2.8407,2.8407,0,0,0,.5229,1.0131,2.4259,2.4259,0,0,0,.8456.7711,3.4469,3.4469,0,0,0,1.4843.4174,3.2874,3.2874,0,0,0,1.2645-.16,5.233,5.233,0,0,0,3.4583-3.3682,2.5171,2.5171,0,0,0,0-1.3292,2.796,2.796,0,0,0-1.1489-1.4941,2.4877,2.4877,0,0,0-1.2618-.3413,5.8315,5.8315,0,0,0-1.3759-.0192,8.88,8.88,0,0,0-1.9434.3722,8.7013,8.7013,0,0,0-1.7516.7953,4.8555,4.8555,0,0,0-.7317.5376,2.556,2.556,0,0,0-.7322,1.7678,2.3694,2.3694,0,0,0,.088.7391,2.7584,2.7584,0,0,0,.96,1.4054,2.5258,2.5258,0,0,0,1.6562.5748,2.6411,2.6411,0,0,0,1.7678-.7322,2.5,2.5,0,0,0,0-3.5355,2.4961,2.4961,0,0,0-1.7678-.7323Z" transform="translate(-23.1189 -47.3598)"/><path class="cls-4" d="M56.9989,97.6992l-.0443-.0067.5972.252-.0316-.0176.8969.8969-.02-.0268.2521.5972-.0089-.0341.0893.6646.001-.04-.0893.6646a.3208.3208,0,0,1,.028-.09l-.252.5972a.5027.5027,0,0,1,.0562-.0926l-.3909.506a.5073.5073,0,0,1,.0769-.0815l-.506.3909a.3578.3578,0,0,1,.09-.0567l-.5972.252a11.4586,11.4586,0,0,1,2.87-.782l-.6646.0893a6.6057,6.6057,0,0,1,1.6279-.0841l-.6646-.0893a.5975.5975,0,0,1,.1178.0309l-.5972-.252a.345.345,0,0,1,.0991.0571l-.506-.3909.0388.0405-.3909-.5059.0295.05-.252-.5972.02.0715-.0893-.6646-.0015.0724.0893-.6646-.0193.0718.252-.5972a.5449.5449,0,0,1-.0787.136l.3909-.506a1.5838,1.5838,0,0,1-.2263.2122l.5059-.3909a2.6355,2.6355,0,0,1-.5155.2949l.5972-.252a3.9966,3.9966,0,0,1-.9528.2415l.6646-.0893a7.04,7.04,0,0,1-1.2083.0679l.6646.0893a.4364.4364,0,0,1-.1225-.027l.5972.252-.0529-.0285.506.3909-.0443-.0417.3909.506-.0229-.0469L60.54,100l-.0035-.0525-.0893.6646.0126-.052-.252.5972.0256-.0452-.3909.506.0355-.0323-1.1031.6429.0422-.0131H57.4878l.0458.0122a2.599,2.599,0,0,0,1.9264-.252,2.5,2.5,0,0,0,.8969-3.4205,2.5908,2.5908,0,0,0-1.4941-1.1489,2.64,2.64,0,0,0-2.9468,1.1821,2.7136,2.7136,0,0,0-.0119,2.72,2.8515,2.8515,0,0,0,2.3784,1.3354c.1963.0068.3939-.0039.59-.0141a9.1924,9.1924,0,0,0,1.8089-.2428,5.2545,5.2545,0,0,0,2.0454-1.08,2.8683,2.8683,0,0,0,.2765-4.1493,3.362,3.362,0,0,0-2.6609-.8638,13.92,13.92,0,0,0-3.4205.5587,5.5937,5.5937,0,0,0-2.3181,1.1186,2.899,2.899,0,0,0-.8736,2.0327,2.5612,2.5612,0,0,0,.3694,1.3426,2.528,2.528,0,0,0,1.57,1.1732,1.8938,1.8938,0,0,0,.9969.0447,1.8609,1.8609,0,0,0,.9295-.2967,2.5,2.5,0,0,0,.8969-3.4205,2.4146,2.4146,0,0,0-1.4941-1.1489Z" transform="translate(-23.1189 -47.3598)"/><path class="cls-4" d="M69.5912,95.3812l-.02.0256,1.1032-.6429-.03.0056h1.3292l-.0337-.0106.5972.252-.03-.0231.8969.8968-.02-.0318.3413,1.2618-.0022-.0368L73.3815,98.34l.0246-.05-.3909.506.0424-.0379-.506.3909.053-.0283-.5972.252A10.916,10.916,0,0,1,74.31,98.746l-.6646.0893a5.0029,5.0029,0,0,1,1.2227-.0191l-.6646-.0893a1.8528,1.8528,0,0,1,.4085.0884l-.5972-.252a1.0354,1.0354,0,0,1,.2005.1175l-.506-.3909a.503.503,0,0,1,.0756.076l-.3909-.506a.33.33,0,0,1,.0493.085l-.252-.5972.0125.0451-.0893-.6646.0033.0467.0893-.6646a.2394.2394,0,0,1-.025.0966l.252-.5972-.0327.0507.3909-.5059-.0425.0428.5059-.391a2.1737,2.1737,0,0,1-.44.2219l.5972-.252a6.4619,6.4619,0,0,1-1.5559.4231l.6646-.0893a6.4447,6.4447,0,0,1-1.6124.0075l.6646.0893q-.0763-.01-.1525-.0215l1.7461,3.0753.02-.0574L73.935,98.8a1.1054,1.1054,0,0,1,.12-.2095l-.3909.506a1.2083,1.2083,0,0,1,.1722-.17l-.5059.391a1.2155,1.2155,0,0,1,.21-.12l-.5972.252a1.1351,1.1351,0,0,1,.2338-.06l-.6646.0893a.79.79,0,0,1,.1211-.004,2.5751,2.5751,0,0,0,1.7677-.7323,2.5,2.5,0,0,0,0-3.5355,2.6058,2.6058,0,0,0-1.7677-.7322,4.78,4.78,0,0,0-.7857.0933,1.324,1.324,0,0,0-.177.0388,3.21,3.21,0,0,0-.8643.393,3.4263,3.4263,0,0,0-1.4607,1.9309,1.8938,1.8938,0,0,0-.0446.9969,1.8609,1.8609,0,0,0,.2967.93,2.4081,2.4081,0,0,0,1.494,1.1489,8.3,8.3,0,0,0,3.436-.0424,6.1664,6.1664,0,0,0,1.1071-.3232,10.92,10.92,0,0,0,1.0128-.4358,3.2162,3.2162,0,0,0,.6372-.4725,2.7036,2.7036,0,0,0,.7182-1.1967,2.8669,2.8669,0,0,0-1.3591-3.2379,4.52,4.52,0,0,0-2.1837-.5121,8.71,8.71,0,0,0-1.7647.1845,10.19,10.19,0,0,0-1.21.31,3.6612,3.6612,0,0,0-2.4217,1.535,2.62,2.62,0,0,0-.3413,1.2618,3.9076,3.9076,0,0,0,.0915.7014,2.6777,2.6777,0,0,0,1.1685,1.5259,2.478,2.478,0,0,0,1.658.3305c.0345-.0047.2508-.0238.3627-.05a1.8827,1.8827,0,0,0,.85-.4475.72.72,0,0,0,.2731-.2211,2.7815,2.7815,0,0,0,.7322-1.7678,2.5438,2.5438,0,0,0-.7322-1.7677,2.5153,2.5153,0,0,0-1.7678-.7323,2.4118,2.4118,0,0,0-1.7677.7323Z" transform="translate(-23.1189 -47.3598)"/><path class="cls-5" d="M57.4786,88.8861a1.1787,1.1787,0,0,1,.1191-.2017l-.3909.506a1.2361,1.2361,0,0,1,.1611-.1608l-.506.3909a1.3321,1.3321,0,0,1,.2463-.144l-.5972.252a1.5374,1.5374,0,0,1,.3381-.09l-.6646.0893a1.6869,1.6869,0,0,1,.3552-.0011l-.6646-.0894a1.6092,1.6092,0,0,1,.3416.0867l-.5972-.252a1.3437,1.3437,0,0,1,.2972.1733l-.506-.3909a1.2691,1.2691,0,0,1,.1581.1631l-.3909-.5059a1.1768,1.1768,0,0,1,.1156.2007l-.252-.5972.0211.0561,1.7461-3.0753a11.527,11.527,0,0,1-2.3313.5757l.6646-.0893a11.5444,11.5444,0,0,1-2.2963.0683l2.4107,1.8354-.0119-.0694.0893.6646.0031-.0662-.0893.6646.0167-.0628-.2521.5972a.4128.4128,0,0,1,.068-.1151l-.3909.506a.6544.6544,0,0,1,.1047-.1l-.506.391a1.5007,1.5007,0,0,1,.2725-.1525l-.5972.252a12.882,12.882,0,0,1,2.7573-.6009l-.6646.0893a18.6281,18.6281,0,0,1,2.4517-.1576l-1.2618-4.6587q-.1378.0633-.2771.1227l.5972-.2521a7.7725,7.7725,0,0,1-1.8471.5021l.6646-.0893a7.7483,7.7483,0,0,1-1.8136.0237l2.1587,3.7618a2.4272,2.4272,0,0,1,.2863-.4995l-.3909.506a2.5669,2.5669,0,0,1,.4077-.4074l-.506.3909a2.52,2.52,0,0,1,.4983-.289l-.5972.252a2.0285,2.0285,0,0,1,.4578-.1269l-.6646.0893a1.24,1.24,0,0,1,.22.0025l-.6646-.0893a.5433.5433,0,0,1,.1346.0376l-.5972-.252.06.032-.506-.3909a.3655.3655,0,0,1,.1.0942l-.3909-.5059.0269.0512-.252-.5972.0123.0554-.0893-.6646-.0008.0574.0893-.6646a.336.336,0,0,1-.0347.1115l.252-.5972-.0306.05.3909-.506a.2931.2931,0,0,1-.08.0754l.5059-.3909-.0461.0212.5972-.252-.0482.0073h1.3292l-.0486-.009.5972.252-.0474-.0276a2.593,2.593,0,0,0-1.9264-.252,2.5006,2.5006,0,0,0-.5972,4.5694,2.7214,2.7214,0,0,0,2.7139.008,2.9179,2.9179,0,0,0,1.2943-1.7305,2.7778,2.7778,0,0,0-.7275-2.6488,3.0612,3.0612,0,0,0-2.125-.8512,3.4868,3.4868,0,0,0-1.1948.2062,4.6736,4.6736,0,0,0-1.1007.5315,4.5629,4.5629,0,0,0-1.6241,1.8283A2.5,2.5,0,0,0,54.57,90.174a9.9772,9.9772,0,0,0,5.2-.99l.506-.3909a1.8733,1.8733,0,0,0,.5169-.8045,2.4,2.4,0,0,0,.126-1.6278,2.57,2.57,0,0,0-2.4107-1.8354,21.6364,21.6364,0,0,0-4.1711.42,11.6189,11.6189,0,0,0-1.6661.4139,3.7521,3.7521,0,0,0-1.5167.9094,2.9038,2.9038,0,0,0-.7193,1.25,3.481,3.481,0,0,0,.0005,1.4962l.252.5972a1.89,1.89,0,0,0,.6439.7014,2.6137,2.6137,0,0,0,1.5148.5368,13.0908,13.0908,0,0,0,5.2922-.7333,2.6263,2.6263,0,0,0,1.4941-1.1489,2.4516,2.4516,0,0,0,.252-1.9264,3.6783,3.6783,0,0,0-.78-1.36,3.4774,3.4774,0,0,0-.7563-.6214,3.7939,3.7939,0,0,0-1.8971-.5416,3.5788,3.5788,0,0,0-3.29,1.8437,2.6939,2.6939,0,0,0-.252,1.9264,2.55,2.55,0,0,0,1.1489,1.4941,2.5236,2.5236,0,0,0,1.9264.252,2.4513,2.4513,0,0,0,1.4941-1.1489Z" transform="translate(-23.1189 -47.3598)"/></g><g id="alarm"><rect class="cls-6" x="87.7976" y="72.9249" width="47.9348" height="47.9348" rx="18.587" transform="translate(-7.4664 -62.9038) rotate(8.5526)"/><path class="cls-5" d="M93.842,74.9626c.0637-.1218.5585-.7788.2-.38.1434-.1593.3-.3023.45-.4553.3773-.3861-.2506.1226.177-.1395.25-.153.4916-.314.7488-.4554A13.9663,13.9663,0,0,1,98.0484,72.4a27.1305,27.1305,0,0,1,3.37-.9321,18.4883,18.4883,0,0,1,3.335-.4323l-.6646-4.9107a69.8626,69.8626,0,0,0-8.3227,2.79,32.2809,32.2809,0,0,0-3.0584,1.7461c-.2624.1563-.5267.31-.7965.4529-.0871.0462-.9249.4253-.4212.2257a6.6368,6.6368,0,0,1-.8432.2742q-.2151.054-.4339.0906.4443-.0585-.0047-.0221l2.5,2.5c.0094-.2812.0291-.5608.0472-.8415.0174-.2708.0168-.1949-.0161.03.02-.14.0434-.2805.07-.42a8.2294,8.2294,0,0,1,.1977-.8211c.04-.1327.0953-.2627.1311-.3962-.0543.2024-.1357.2689-.0106.0279a7.5582,7.5582,0,0,1,.4142-.6993c-.122.184-.1922.2142-.0038.0373.1-.0936.1922-.1934.2974-.2812-.219.1828-.0582.0493.0862-.0287.1528-.0826.3036-.1665.4592-.244.0871-.0433.3649-.1572.1213-.0571.208-.0855.42-.1621.6316-.2384a23.3346,23.3346,0,0,1,4.18-1.0707c.442-.0721-.3066.0334.1379-.0218.1786-.0222.3577-.0409.5369-.0581q.5378-.0517,1.0774-.0777c.36-.0172.72-.0279,1.08-.0258.0529,0,.55.02.1828-.0164q-.2566-.0468-.05.0018.706.2013-.86-.6949a2.5,2.5,0,0,0,4.3174-2.5236c-1.3063-2.0428-3.7566-1.8687-5.8822-1.6505A25.3594,25.3594,0,0,0,93.8044,65.43c-1.9788.7145-3.7795,1.6408-4.851,3.5386a11.2916,11.2916,0,0,0-1.2451,5.2149,2.5189,2.5189,0,0,0,2.5,2.5c2.8848-.1606,4.9512-1.834,7.4023-3.1192.0893-.0468.86-.4111.5672-.286.3232-.1382.6579-.2538.99-.3687.6735-.2331,1.3563-.439,2.0366-.6509l4.2138-1.3118a2.512,2.512,0,0,0,1.7908-2.7429,2.4781,2.4781,0,0,0-2.4554-2.1677,29.6054,29.6054,0,0,0-8.5409,1.725c-2.5432.9427-5.3615,2.1414-6.688,4.6781a2.5,2.5,0,1,0,4.3174,2.5236Z" transform="translate(-23.1189 -47.3598)"/><path class="cls-5" d="M131.2483,75.0649a2.1353,2.1353,0,0,1-1.1781.4562c.4448-.055-.4243-.091-.1721-.0228.2869.0776-.4317-.2435-.171-.0836.0868.0532.1813.0953.2685.149.213.131.4115.2843.6134.4316.262.1911,0,.0426-.0876-.0708a2.287,2.287,0,0,0,.3421.2751,20.814,20.814,0,0,1,2.2222,2.1183q.2356.26.4626.5286.1417.1675.28.3382c.0427.0528.2883.3715.0769.0913s.03.0421.0706.0962q.131.1762.2583.355.2037.2862.3975.5791a21.126,21.126,0,0,1,1.5365,2.7585,2.517,2.517,0,0,0,3.9264.506,9.8947,9.8947,0,0,0,2.7279-6.08,8.6584,8.6584,0,0,0-2.0271-6.0861,8.3818,8.3818,0,0,0-5.7783-2.9,16.3628,16.3628,0,0,0-6.1332.8151,2.5329,2.5329,0,0,0-1.7461,3.0753,2.5764,2.5764,0,0,0,3.0753,1.7461c-.8021.1221-.0992.0252.0886.0237.1516-.0012.3014.0126.4525.0174q.4084.0426-.2153-.0313.149.0261.2962.0605.2211.0517.4372.1222.1441.0469.2854.1018-.5436-.2375-.18-.07c.1329.0733.27.1383.4.2158q.13.0774.2563.1619.3226.2288-.1395-.1223c.0636.1214.2937.2509.396.351.0731.0715.2715.37.3589.3881q-.3486-.4656-.1176-.1449.0647.093.1234.19a7.3478,7.3478,0,0,1,.4635.9365,4.5387,4.5387,0,0,0,1.9593,2.2888,2.5293,2.5293,0,0,0,3.7618-2.1587,6.7185,6.7185,0,0,0-4.5135-6.4A2.5038,2.5038,0,0,0,132.4,74.64c.316.18.6252.3694.9239.5767q.1122.0774.2217.1583.2207.163-.1448-.116c-.0035.0151.3959.33.4182.3491q.41.3588.7833.7568.1556.1655.3038.3373c.0915.1056.5171.6531.1212.1306L137.85,73.16c-.0869-.0273-.5286-.1764-.1362-.0359.3523.1262.0337,0-.0472-.0464-.036-.0207-.2908-.2237-.325-.21.0769-.0318.4586.3979.0917.042-.0741-.0718-.1395-.1528-.2133-.2245-.2085-.2024.2821.4527.064.0745-.0513-.089-.1036-.1789-.1569-.2667-.2752-.4529.1846.5286.01.0281l-4.1785,2.4324a10.2015,10.2015,0,0,1,.775.7051q.153.1557.2983.3189c.0506.0566.4577.5037.1961.2165-.2538-.2787.0689.0975.1175.1673q.15.2151.2877.4381a10.0639,10.0639,0,0,1,.4993.921,2.5133,2.5133,0,0,0,3.4205.8969,2.5656,2.5656,0,0,0,.8969-3.4205,11.3777,11.3777,0,0,0-2.9558-3.7788,2.58,2.58,0,0,0-3.0295-.391,2.5382,2.5382,0,0,0-1.1489,2.8233,6.4241,6.4241,0,0,0,4.2048,4.1307,2.4985,2.4985,0,0,0,2.6278-.896,2.4577,2.4577,0,0,0,.1954-2.7765,14.5713,14.5713,0,0,0-4.421-3.9865l-1.9264,4.5694c-.6973-.2621-.0555-.0163.1039.081q.1.06.1947.1276.23.1614-.1976-.1551a4.9537,4.9537,0,0,0,.3907.3788c.41.4516-.1892-.3709.0363.0491.0729.1359.1534.2726.2315.406q.1705.3641-.0668-.1688.0537.146.0961.2956a1.9879,1.9879,0,0,0,.1005.4545q-.0743-.6129-.0442-.201.0055.1557-.0024.3114l3.7618-2.1586q-.342-.1945.1567.16-.2682-.2785.1168.19a2.7026,2.7026,0,0,0-.286-.5055c-.1731-.3577-.3078-.7327-.5011-1.0807a7.5259,7.5259,0,0,0-2.0305-2.28,7.8929,7.8929,0,0,0-6.1735-1.4772l1.3292,4.8214c.7647-.2181,1.535-.4185,2.3177-.5614q.181-.0333.3629-.0622.423-.063-.12.0135a2.0191,2.0191,0,0,1,.5441-.0523,9.8387,9.8387,0,0,1,1.0792-.0214q.1779.0066.3554.0209.4222.0432-.1374-.0284a1.4487,1.4487,0,0,1,.5189.099q.2571.06.5089.14.1683.054.333.1179l-.27-.1133c.1588-.0043.9024.6343.9886.5871q-.4118-.3235-.1983-.1423.09.0769.1765.1588c.1348.1266.2624.26.3843.3993.41.4674-.2052-.3608.0471.0575.0821.1361.1747.2653.2543.4034s.15.28.2227.4223c.2271.4433-.1865-.532.0195.0656.0606.1757.1138.3537.1582.5343.0266.1078.03.4026.0959.4676q-.0681-.5642-.0385-.27.013.1255.0193.2518c.0111.2012.0111.4027.0025.604q-.0045.1293-.0158.2582-.0435.4193.0259-.1512c.0431.0419-.0918.4606-.1032.5072q-.0612.2519-.1414.4986c-.0343.1055-.3272.6584-.1215.3475.2207-.3333-.1406.2535-.1794.3233q-.1263.2272-.2689.4451-.095.1452-.1967.2856l.1807-.23a2.2037,2.2037,0,0,1-.4589.5187l3.9264.506a23.0673,23.0673,0,0,0-4.4667-6.3974c-1.9927-2.0254-5.54-5.2859-8.3058-2.6145a2.5,2.5,0,0,0,3.5355,3.5355Z" transform="translate(-23.1189 -47.3598)"/><path class="cls-3" d="M111.4567,98.1387a.2062.2062,0,0,1,.04.0114l-.5972-.252a.1874.1874,0,0,1,.0386.0223l-.5059-.3909a.2032.2032,0,0,1,.0308.0307l-.3909-.506a.2312.2312,0,0,1,.0279.0475l-.252-.5972a.2916.2916,0,0,1,.0193.0723l-.0893-.6646a.3528.3528,0,0,1-.0006.09l.0893-.6646a.35.35,0,0,1-.0216.0806l.2521-.5972a.2938.2938,0,0,1-.0339.06l.3909-.506a.2359.2359,0,0,1-.0385.04l.506-.391a.1963.1963,0,0,1-.0373.0224l.5972-.252a.19.19,0,0,1-.0486.0132l.6646-.0893a.2291.2291,0,0,1-.0361.0007l2.4107,3.1646a4.5626,4.5626,0,0,0,.0947-.7218c0-.0107,0-.0214-.0013-.0321l-.0018-.0159-.0893-.6646a.4139.4139,0,0,0-.0143-.0621,5.6279,5.6279,0,0,0-.27-.6417.4222.4222,0,0,0-.0317-.056,6.4534,6.4534,0,0,0-.42-.545.4951.4951,0,0,0-.0454-.0473,5.7589,5.7589,0,0,0-.5475-.4248,2.1226,2.1226,0,0,0-.4022-.1844,3.07,3.07,0,0,0-.3525-.1444,3.1311,3.1311,0,0,0-.3876-.056,2.971,2.971,0,0,0-.3881-.0482,4.4448,4.4448,0,0,0-.7161.0935.4013.4013,0,0,0-.0584.0143,4.4178,4.4178,0,0,0-.65.2753,2.4084,2.4084,0,0,0-1.1936,2.491,1.8609,1.8609,0,0,0,.2967.93l.3909.506a2.4982,2.4982,0,0,0,1.1032.6429l.6646.0893a2.4893,2.4893,0,0,0,1.2618-.3413l.03-.0145-.5972.252a.364.364,0,0,1,.085-.0237l-.6646.0893a.4066.4066,0,0,1,.1034,0l-.6646-.0893a.47.47,0,0,1,.1092.03l-.5972-.252a.5247.5247,0,0,1,.1135.0658l-.5059-.3909a.52.52,0,0,1,.0872.0864l-.3909-.506a.4573.4573,0,0,1,.0572.097l-.252-.5972a.3976.3976,0,0,1,.0254.092l-.0893-.6646a.3664.3664,0,0,1,0,.0888l.0893-.6646-.0026.0164a2.5171,2.5171,0,0,0,0,1.3292,2.7966,2.7966,0,0,0,1.1489,1.494,2.4878,2.4878,0,0,0,1.2618.3414.2716.2716,0,0,0,.0361-.0007c.0225-.0016.6469-.0861.6675-.09l.0085-.0013.0218-.0056.0154-.0059c.0216-.0083.58-.2434.6-.2532l.0073-.0036a2.3859,2.3859,0,0,0,.28-.2131,2.4388,2.4388,0,0,0,.2753-.2157l.011-.0126.0052-.0066c.0651-.08.3369-.4267.3943-.51a.292.292,0,0,0,.0194-.0317l.0076-.0157.0035-.0081.252-.5972.0022-.0054a.402.402,0,0,0,.019-.0722,6.1208,6.1208,0,0,0,.0926-.6976.3368.3368,0,0,0,0-.0389l-.0016-.0177c-.0056-.0567-.0805-.61-.09-.6675l-.0013-.0088a.31.31,0,0,0-.0083-.0368l-.0065-.0188-.0032-.0079c-.0126-.0329-.2385-.5692-.2531-.6a.2693.2693,0,0,0-.0172-.0317c-.06-.0906-.1863-.242-.2051-.2663.0006.0007-.1324-.1873-.2061-.2653l-.0139-.0131-.0063-.0052c-.0517-.0439-.4558-.3576-.51-.3942a2.0739,2.0739,0,0,0-.3328-.1451,1.8736,1.8736,0,0,0-.3389-.1374,1.8938,1.8938,0,0,0-.9969-.0447,1.8609,1.8609,0,0,0-.93.2967,2.7973,2.7973,0,0,0-1.1489,1.4941l-.0893.6646a2.4878,2.4878,0,0,0,.3414,1.2618l.3909.506a2.4979,2.4979,0,0,0,1.1031.6429Z" transform="translate(-23.1189 -47.3598)"/><path class="cls-3" d="M110.2973,91.9752l.0291-.1934a.9471.9471,0,0,0,.0224-.4985.93.93,0,0,0-.1484-.4647,1.3987,1.3987,0,0,0-.747-.5745l-.3323-.0446a1.2445,1.2445,0,0,0-.6309.1706l-.253.1955a1.2486,1.2486,0,0,0-.3215.5516l-.0291.1934a.9471.9471,0,0,0-.0223.4985.931.931,0,0,0,.1483.4647,1.3981,1.3981,0,0,0,.7471.5745l.3323.0446a1.2441,1.2441,0,0,0,.6309-.1706l.253-.1955a1.2484,1.2484,0,0,0,.3214-.5516Z" transform="translate(-23.1189 -47.3598)"/><path class="cls-3" d="M110.403,90.8066a22.3189,22.3189,0,0,1-2.458-6.853l-2.2847.9632a13.9184,13.9184,0,0,1,1.9664,6.2763l2.3293-.6309a23.549,23.549,0,0,1-1.824-7.6977l-2.4553.3323a47.8033,47.8033,0,0,1,2.5359,9.3534l2.2847-.9632a15.4454,15.4454,0,0,1-1.5813-9.179l-2.3294.6309a19.3622,19.3622,0,0,1,1.8266,9.1021l2.3294-.6309c-2.5054-3.3308-2.7979-7.5934-3.0313-11.6084l-2.4554.3323a45.5291,45.5291,0,0,1,1.6422,5.5753q.3063,1.362.5281,2.741c.0683.4257.1311.8522.1841,1.28.0333.2693.0656.539.0921.8091q.0166.1452.0261.2912-.0315.4116.1225-.0979h1.7678c-1.073-1.1365-1.0563-3.2226-1.1763-4.6809a42.9849,42.9849,0,0,1-.0537-6.2022l-1.8809,1.0794c.09.0584.15.4533.187.5776q.2.6692.3779,1.3446.3576,1.35.6331,2.7205a44.2764,44.2764,0,0,1,.7407,5.43,1.2809,1.2809,0,0,0,1.25,1.25,1.26,1.26,0,0,0,1.25-1.25,49.5984,49.5984,0,0,0-.9241-6.5511q-.3372-1.5942-.7864-3.1621A3.9384,3.9384,0,0,0,107.77,78.87a1.2626,1.2626,0,0,0-1.8809,1.0793,42.8158,42.8158,0,0,0,.1187,6.9156c.2012,2.0169.3837,4.1889,1.8435,5.7353a1.2628,1.2628,0,0,0,1.7678,0c.8606-.9209.5815-2.101.4321-3.2317-.1466-1.1106-.3237-2.2162-.5471-3.3141a45.5137,45.5137,0,0,0-1.8372-6.4853,1.2609,1.2609,0,0,0-1.3715-.8954,1.2409,1.2409,0,0,0-1.0838,1.2277c.2571,4.4215.613,9.2014,3.3726,12.87a1.2618,1.2618,0,0,0,2.3293-.6309,22.052,22.052,0,0,0-2.1679-10.3639,1.2605,1.2605,0,0,0-1.4116-.5745,1.3138,1.3138,0,0,0-.9177,1.2054,17.7023,17.7023,0,0,0,1.9226,10.4408,1.245,1.245,0,0,0,1.561.5114,1.2736,1.2736,0,0,0,.7237-1.4746,47.8033,47.8033,0,0,0-2.5359-9.3534,1.264,1.264,0,0,0-1.3715-.8953,1.24,1.24,0,0,0-1.0839,1.2276,27.1252,27.1252,0,0,0,2.1653,8.9595c.4914,1.1476,2.4031.5538,2.3294-.6309a16.6662,16.6662,0,0,0-2.3077-7.5381,1.2561,1.2561,0,0,0-2.2847.9632,24.4264,24.4264,0,0,0,2.71,7.45c.7853,1.4044,2.9455.1454,2.1587-1.2618Z" transform="translate(-23.1189 -47.3598)"/><path class="cls-3" d="M114.8162,101.36l1.998,3.2225a1.25,1.25,0,1,0,2.1587-1.2618l-2.0245-3.5184-1.71,1.71c-.047-.0361-.1874-.1657-.0754-.05.0349.036.0737.0686.109.1044s.067.0745.1022.11c.12.1208-.0423-.0285-.0541-.0782.0181.0764.126.18.1687.2489.0532.0863.1027.1748.15.2647s.09.1847.1342.2773c.0737.153-.0252-.0307-.0332-.0841a.7721.7721,0,0,0,.059.1455c.083.2086.16.42.2373.63a6.5475,6.5475,0,0,0,1.4678,2.6,1.25,1.25,0,0,0,1.7678-1.7678,13.1566,13.1566,0,0,1-1.0057-1.0781c-.0836-.1007-.1681-.2017-.2466-.3064.1281.1709.0246.03-.0417-.0609q-.2178-.2976-.4184-.6074a12.8982,12.8982,0,0,1-.7077-1.2372,4.8267,4.8267,0,0,1-.2916-.6235c.1011.3069-.0393-.099-.0615-.1559-.0477-.1222-.0929-.2453-.1372-.3687l-2.0892,1.2162a3.3324,3.3324,0,0,1,.5088.599c-.044-.0847-.1-.1339-.0159-.0191.0388.0527.078.1053.1162.1584q.1149.16.2239.3231a11.2368,11.2368,0,0,1,.8,1.4091c.0564.1184.1089.2384.1627.3579.0746.1655-.0752-.1969-.0122-.0266.0227.0613.0485.1218.0719.1829q.1406.3671.2552.7434a11.3442,11.3442,0,0,1,.3571,1.58l2.2847-.9632a17.21,17.21,0,0,1-1.4666-2.428c-.0323-.069-.2178-.3578-.0568-.1213a1.417,1.417,0,0,1-.107-.2833,6.0361,6.0361,0,0,1-.196-.6717c-.022-.097-.0384-.1949-.058-.2923q-.0333-.2146.0039.0374-.0106-.0988-.017-.1981a4.785,4.785,0,0,1,.0106-.7022l-2.1338.8839a7.4258,7.4258,0,0,1,.9156.9221q.0594.0716.1168.1447l-.0824-.1055a1.8168,1.8168,0,0,1,.2149.3035q.1683.251.3158.5151c.0985.1762.1863.3569.2733.5388q.0843.1908-.0149-.0428.0354.0859.0687.1728.05.13.0948.2623a7.4459,7.4459,0,0,1,.3059,1.263l2.0892-1.2162a10.8175,10.8175,0,0,1-1.082-1.0739q-.1252-.1437-.2453-.292-.06-.0741-.1188-.1493.1474.1909.0225.0252c-.1376-.1951-.2767-.388-.4055-.5892a10.695,10.695,0,0,1-.7089-1.2957c-.0279-.0607-.224-.4275-.0635-.1389a2.5035,2.5035,0,0,1-.1373-.3558c-.0873-.239-.1646-.4812-.2352-.7256l-2.2847.9632q.7844,1.2321,1.4628,2.5268.3315.6351.6355,1.284.1519.3243.297.6519c.0446.1007.088.202.1323.3029q.0852.2.0033.0057.0426.1017.0846.2036l1.5376-1.5376-.4862-.0667a1.38,1.38,0,0,0-.9632.126,1.25,1.25,0,0,0,.2986,2.2847l.4862.0667a1.3216,1.3216,0,0,0,1.2162-.3215,1.2241,1.2241,0,0,0,.3215-1.2162,35.7881,35.7881,0,0,0-2.8675-5.5721,1.2519,1.2519,0,0,0-2.2847.9632,11.952,11.952,0,0,0,3.6169,5.6984,1.2847,1.2847,0,0,0,1.5148.1954,1.3235,1.3235,0,0,0,.5745-1.4116,8.4846,8.4846,0,0,0-2.8515-5.0772,1.2565,1.2565,0,0,0-2.1339.8839c-.1856,2.2009,1.0328,4.1825,2.2282,5.9213a1.2519,1.2519,0,0,0,2.2847-.9632,12.455,12.455,0,0,0-3.11-6.4115A1.25,1.25,0,0,0,113.95,100.14a14.4062,14.4062,0,0,0,3.5533,5.5413l1.7678-1.7678c-.0745-.0709-.1421-.1467-.2129-.221-.1247-.131.055.0338.053.0739.0012-.0242-.09-.129-.1086-.157a4.5382,4.5382,0,0,1-.298-.54c-.0222-.047-.0417-.0957-.065-.1422-.07-.1389.1023.2564.0187.0451-.0389-.0983-.0777-.1965-.1151-.2953-.08-.21-.1556-.4225-.2349-.6332a8.8607,8.8607,0,0,0-.622-1.3936A4.4954,4.4954,0,0,0,116.5,99.3536a1.2488,1.2488,0,0,0-1.5148.1955,1.2866,1.2866,0,0,0-.1954,1.5148l2.0244,3.5184,2.1587-1.2618-1.9981-3.2225a1.25,1.25,0,1,0-2.1586,1.2618Z" transform="translate(-23.1189 -47.3598)"/><path class="cls-3" d="M92.1634,115.3954l-5.5246,5.192a1.2517,1.2517,0,0,0,1.5148,1.9632,24.037,24.037,0,0,0,4.95-3.7164,1.25,1.25,0,1,0-1.7678-1.7678q-.5269.5139-1.0847.9943-.2605.2237-.5281.4391c-.1017.082-.2033.1649-.3077.2436.2443-.1843-.0487.0351-.0983.072a22.7271,22.7271,0,0,1-2.4249,1.5765l1.5148,1.9633,5.5246-5.192a1.2609,1.2609,0,0,0,0-1.7678,1.276,1.276,0,0,0-1.7678,0Z" transform="translate(-23.1189 -47.3598)"/><path class="cls-3" d="M121.3483,121.8q.8079,1.461,1.49,2.9862.0834.1873.1647.3754.0465.1075.0923.2153-.0637-.151-.0125-.0286c.1026.2533.2072.5058.3067.76q.3091.791.5827,1.5951l2.2847-.9632a12.3308,12.3308,0,0,1-1.119-1.7942q-.1107-.2178-.2126-.44c-.0119-.0258-.1558-.3566-.0479-.0993q-.042-.1-.0817-.2013-.2-.5049-.3533-1.0263c-.1763-.5978-.2319-1.2413-.4538-1.8227a2.062,2.062,0,0,0-1.9914-1.56,1.2812,1.2812,0,0,0-1.25,1.25c.0274.6131.5543,1.33,1.25,1.25.174-.02-.0682-.0256-.119-.0414q-.27-.1356-.1438-.0621.0815.0506-.044-.0353-.1182-.0968-.0487-.0257.0642.0722-.0288-.038c-.1043-.0522-.04-.0575.0056.0389.0639.1352-.0765-.254-.0113-.033.0159.0537.0356.1063.0511.16.0351.1218.0595.2457.0831.37a12.3982,12.3982,0,0,0,.4913,1.8334,13.3324,13.3324,0,0,0,1.8655,3.5386,1.272,1.272,0,0,0,1.561.5114,1.241,1.241,0,0,0,.7237-1.4746,40.5332,40.5332,0,0,0-2.8756-6.501,1.2623,1.2623,0,0,0-1.71-.4484,1.2755,1.2755,0,0,0-.4485,1.71Z" transform="translate(-23.1189 -47.3598)"/><path class="cls-3" d="M97.6626,74.119l.16.2256a1.2038,1.2038,0,0,0,1.2454.5968.93.93,0,0,0,.4648-.1483l.253-.1955a1.249,1.249,0,0,0,.3214-.5516l.0447-.3323a1.2442,1.2442,0,0,0-.1707-.6309l-.16-.2256a1.2044,1.2044,0,0,0-1.2455-.5968.93.93,0,0,0-.4647.1484l-.253.1954a1.25,1.25,0,0,0-.3215.5516l-.0446.3323a1.2442,1.2442,0,0,0,.1707.6309Z" transform="translate(-23.1189 -47.3598)"/><path class="cls-3" d="M131.874,78.2519l-.4116.2428-.253.1954-.1954.253-.126.2986a.9457.9457,0,0,0-.0223.4984,1.2293,1.2293,0,0,0,.246.5913.6288.6288,0,0,0,.2242.2242.9412.9412,0,0,0,.4251.2237,2.9117,2.9117,0,0,0,.3608.0478.2008.2008,0,0,0,.031-.001l.0084-.0011.3323-.0446.0166-.0031a.2358.2358,0,0,0,.03-.0089,3.4087,3.4087,0,0,0,.3221-.136.279.279,0,0,0,.03-.0169l.0118-.0082.0068-.0052.253-.1955a.3282.3282,0,0,0,.0257-.0229,1.8435,1.8435,0,0,0,.2315-.2974l.0156-.0272c.0257-.0519.0506-.1188.0689-.1622.0192-.0456.0472-.1062.0672-.16a.246.246,0,0,0,.01-.0324,3.0019,3.0019,0,0,0,.0484-.3545.24.24,0,0,0,.0012-.0339l-.0015-.017-.0447-.3323-.0018-.0114a1.3986,1.3986,0,0,0-.5744-.7471.9314.9314,0,0,0-.4648-.1483.9467.9467,0,0,0-.4984.0223l-.2986.126a1.2574,1.2574,0,0,0-.4485.4485l-.126.2986a1.26,1.26,0,0,0,0,.6646l.0018.0114-.0446-.3323a.2265.2265,0,0,1,0,.0564l.0447-.3323a.2568.2568,0,0,1-.0169.06l.126-.2986a.2874.2874,0,0,1-.0348.0587l.1955-.253a.3109.3109,0,0,1-.0485.0488l.253-.1955a.2919.2919,0,0,1-.0585.0351l.2986-.126a.2581.2581,0,0,1-.0595.0172l.3323-.0447a.2322.2322,0,0,1-.0565.0007l.3323.0447-.0114-.0018.2986,2.2847.4116-.2428a1.2039,1.2039,0,0,0,.5968-1.2455.93.93,0,0,0-.1483-.4647l-.1955-.253a1.2492,1.2492,0,0,0-.5516-.3215l-.3323-.0446a1.2442,1.2442,0,0,0-.6309.1707Z" transform="translate(-23.1189 -47.3598)"/><path class="cls-3" d="M116.4215,72.7979a5.0812,5.0812,0,0,1,.0419-.82l-.0446.3323a5.1345,5.1345,0,0,1,.3506-1.2634l-.126.2986a5.0532,5.0532,0,0,1,.6379-1.0824l-.1955.253q.0681-.0861.139-.1695a1.3342,1.3342,0,0,0,.3661-.8838,1.25,1.25,0,0,0-2.1339-.8839,6.4787,6.4787,0,0,0-2.0495,3.7755,1.371,1.371,0,0,0,.126.9632,1.25,1.25,0,0,0,1.71.4484,1.2037,1.2037,0,0,0,.5745-.747,5.4809,5.4809,0,0,1,.3734-1.3311l-.1261.2986a5.6139,5.6139,0,0,1,.7009-1.1921l-.1955.253a5.5382,5.5382,0,0,1,.6539-.7008l-1.7678-1.7677a6.2445,6.2445,0,0,0-1.5355,4.2187,1.3051,1.3051,0,0,0,.3661.8839,1.25,1.25,0,0,0,2.1339-.8839Z" transform="translate(-23.1189 -47.3598)"/><path class="cls-3" d="M117.5055,66.87a5.6373,5.6373,0,0,1-.9742-.3023l.2986.126a5.6707,5.6707,0,0,1-.8452-.4475l-.6309,2.3293a5.2947,5.2947,0,0,1,1.0468.0367l-.3323-.0446a5.343,5.343,0,0,1,1.2473.3405l-.2986-.126a5.314,5.314,0,0,1,.8175.4319l.6309-2.3293q-.0673-.0086-.1345-.0177l.3323.0446a15.4,15.4,0,0,1-3.4713-.903l.5516,2.0892q.0338-.029.069-.0562l-.253.1955a1.9854,1.9854,0,0,1,.4173-.2407l-.2986.126a2.21,2.21,0,0,1,.5067-.1353l-.3323.0446a2.4423,2.4423,0,0,1,.6172.0019l-.3323-.0446a2.5072,2.5072,0,0,1,.5968.1644l-.2986-.126a2.3134,2.3134,0,0,1,.4913.2894l-.253-.1955a2.0848,2.0848,0,0,1,.3373.3417l-.1955-.253a2.0441,2.0441,0,0,1,.1651.2612L118.06,66.59q-.1243-.0106-.2479-.0263l.3323.0447a4.7785,4.7785,0,0,1-1.14-.3084l.2986.126a4.8617,4.8617,0,0,1-.7165-.3766,1.2608,1.2608,0,0,0-1.71.4485,1.277,1.277,0,0,0,.4484,1.71,5.9734,5.9734,0,0,0,2.7356.8819,1.2328,1.2328,0,0,0,1.0794-.6192,1.2761,1.2761,0,0,0,0-1.2617,3.2738,3.2738,0,0,0-2.228-1.6134,3.7946,3.7946,0,0,0-1.5643.011,3.2353,3.2353,0,0,0-1.3715.7229,1.2329,1.2329,0,0,0-.3215,1.2162,1.3074,1.3074,0,0,0,.873.8731,16.67,16.67,0,0,0,3.9381.9654l.3323-.0447a.9412.9412,0,0,0,.4251-.2237,1.1929,1.1929,0,0,0,.4479-.6493,1.2991,1.2991,0,0,0-.5744-1.4117,6.2728,6.2728,0,0,0-3.7425-.98,1.2824,1.2824,0,0,0-1.2054.9177,1.2985,1.2985,0,0,0,.5745,1.4117,6.45,6.45,0,0,0,2.118.8758,1.3264,1.3264,0,0,0,.9632-.126,1.25,1.25,0,0,0-.2986-2.2847Z" transform="translate(-23.1189 -47.3598)"/><path class="cls-3" d="M97.0282,64.12l.0752-.7778a1.2845,1.2845,0,0,0-1.25-1.25l-.3323.0446a1.2488,1.2488,0,0,0-.5516.3215l-.1954.253a1.2436,1.2436,0,0,0-.1707.6309l-.0752.7778a1.2845,1.2845,0,0,0,1.25,1.25l.3323-.0446a1.2489,1.2489,0,0,0,.5515-.3215l.1955-.253a1.2436,1.2436,0,0,0,.1707-.6309Z" transform="translate(-23.1189 -47.3598)"/><path class="cls-3" d="M141.0992,68.7891l-.5471.0768.6646,2.4107c.1105-.0446.2248-.0886.3321-.1406.0145-.007.0287-.0148.0425-.0232a3.4727,3.4727,0,0,0,.3278-.2476c.0533-.0419.1036-.0875.1568-.13l-.253.1955a.6174.6174,0,0,1,.1262-.08l-.2986.126a.3715.3715,0,0,1,.08-.0219L141.3985,71a.3988.3988,0,0,1,.1024,0l-.3323-.0446a.34.34,0,0,1,.0774.021l-.2986-.126a.2524.2524,0,0,1,.05.03l-.253-.1955a.2154.2154,0,0,1,.0284.0281l-.1955-.253a.1849.1849,0,0,1,.02.0339l-.126-.2986a.1884.1884,0,0,1,.0109.04l-.0447-.3323a.16.16,0,0,1,0,.0366l.0446-.3323-.0044.0163.126-.2986-.01.0175.1955-.2529-.0106.01.253-.1955-.0173.01.2986-.126a.1373.1373,0,0,1-.0255.007l.3323-.0447a.1847.1847,0,0,1-.0458,0l.3323.0447a.241.241,0,0,1-.0572-.0155l.2986.126a.1814.1814,0,0,1-.0374-.0217l.253.1955-.0164-.0164.1954.253-.0064-.0106.126.2986-.0034-.0109.0446.3323a.0524.0524,0,0,1,0-.0112l-.0447.3323.002-.0075-.126.2986.0063-.0112-.1955.2529.0152-.0147-.253.1954.0107-.0071a1.2045,1.2045,0,0,0,.5968-1.2455.9305.9305,0,0,0-.1484-.4648l-.1954-.253a1.249,1.249,0,0,0-.5516-.3214l-.3323-.0447a1.2442,1.2442,0,0,0-.6309.1707,1.3451,1.3451,0,0,0-.4768.4741l-.0038.0075c-.0131.025-.1191.277-.1272.3024a.9945.9945,0,0,0-.0454.3472c.0012.0244.04.3137.0455.336l.0026.0072c.0732.3081.0723.2076.1324.3092-.0981-.1657.1326.1969.2063.2646.0392.036.1356.1052.1321.1025a1.5642,1.5642,0,0,0,.1369.1052,1.4655,1.4655,0,0,0,.7151.2,1.8,1.8,0,0,0,.7134-.1834,1.3276,1.3276,0,0,0,.4708-.4709,1.1556,1.1556,0,0,0,.1324-.3131,1.7716,1.7716,0,0,0,.0249-.1774,1.2072,1.2072,0,0,0,.0235-.1786,1.1912,1.1912,0,0,0-.0569-.3961c-.0223-.0607-.0984-.2507-.1294-.3058l-.0078-.0138a1.247,1.247,0,0,0-.2151-.2778l-.0117-.011c-.052-.05-.2-.1578-.2592-.2006a.2793.2793,0,0,0-.0275-.0183,1.4643,1.4643,0,0,0-.3676-.1524,1.667,1.667,0,0,0-.8076-.004.3962.3962,0,0,0-.0452.0109l-.0173.0061c-.0947.0344-.2246.0892-.3154.1331a.6154.6154,0,0,0-.0983.0611c-.149.1105-.2883.23-.4342.3436l.253-.1955a.6632.6632,0,0,1-.1347.0817l.2986-.126-.0113.0045a1.3987,1.3987,0,0,0-.747.5745.93.93,0,0,0-.1484.4647.9471.9471,0,0,0,.0224.4985l.126.2986a1.2561,1.2561,0,0,0,.4484.4484l.2986.126a1.2575,1.2575,0,0,0,.6646,0l.5471-.0768a1.3994,1.3994,0,0,0,.7471-.5745.93.93,0,0,0,.1483-.4647.9471.9471,0,0,0-.0223-.4985l-.126-.2986a1.2564,1.2564,0,0,0-.4485-.4484l-.2986-.126a1.26,1.26,0,0,0-.6646,0Z" transform="translate(-23.1189 -47.3598)"/><path class="cls-3" d="M96.3918,64.7856c3.6317.6248,6.8348-1.0257,9.633-3.2,2.73-2.1213,5.3718-4.7991,8.9947-5.1441a10.2336,10.2336,0,0,1,8.2282,2.96c1.22,1.2587,1.9647,2.8908,3.0834,4.2362a14.1688,14.1688,0,0,0,3.61,3.022c3.1878,1.9163,6.8873,2.7878,10.4831,3.5715,1.5683.3418,2.2384-2.0677.6646-2.4107a33.9638,33.9638,0,0,1-9.4068-3.0414,12.2047,12.2047,0,0,1-3.7026-3.0522,43.0482,43.0482,0,0,0-3.0867-4.2192A12.767,12.767,0,0,0,116.949,53.94a13.0818,13.0818,0,0,0-8.9982,2.9369c-3.1,2.3239-6.5953,6.2379-10.8944,5.4982-1.5736-.2707-2.2495,2.138-.6646,2.4107Z" transform="translate(-23.1189 -47.3598)"/></g></svg>